<?xml version="1.0" encoding="utf-8"?>
<!-- Generator: Adobe Illustrator 27.5.0, SVG Export Plug-In . SVG Version: 6.00 Build 0)  -->
<svg version="1.1" xmlns="http://www.w3.org/2000/svg" xmlns:xlink="http://www.w3.org/1999/xlink" x="0px" y="0px"
	 viewBox="0 0 3710 3710" style="enable-background:new 0 0 3710 3710;" xml:space="preserve">
<g id="Background">
	<g>
		<g>
			<rect style="fill:#FFFFFF;" width="3710" height="3710"/>
		</g>
	</g>
</g>
<g id="Illustration">
	<g>
		<path style="fill:#F4F7FA;" d="M1130.479,623.292c-94.432,135.184,16.292,354.351-123.829,456.021
			c-136.397,98.968-303.956-63.254-432.501,21.937c-190.69,126.376-155.866,704.648,122.932,1063.941
			c83.844,108.052,153.901,150.093,184.929,272.294c66.626,262.397-167.53,418.487-122.971,548.264
			c100.332,292.211,1643.366,537.41,2262.5-340.78c289.161-410.151,332.426-1002.412,74.069-1452.238
			C2628.764,379.902,1342.368,319.963,1130.479,623.292z"/>
		<g>
			<g>
				<g>
					<path style="fill:#97A6B7;" d="M3136.14,974.294l-56.307,0.097c-3.879-37.194-12.821-72.897-26.126-106.439l47.608-27.609
						c13.01-7.546,17.46-24.564,9.96-38.051l-20.006-35.977c-7.545-13.569-24.302-18.553-37.45-11.091l-47.015,26.684
						c-21.882-30.664-47.998-58.31-77.578-82.09l27.042-46.452c7.76-13.329,3.156-30.869-10.305-39.221l-35.99-22.33
						c-13.606-8.441-31.063-4.452-38.967,8.956l-27.104,45.977c-34.825-16.221-72.457-27.923-112.149-34.2v-54.522
						c0-16.085-13.231-29.727-29.604-30.474l-43.82-2c-16.583-0.756-30.068,11.81-30.068,28.072v55.121
						c-40.916,3.409-80.359,12.607-117.438,26.839l-29.251-49.833c-8.596-14.644-27.688-20.321-42.67-12.637l-40.073,20.552
						c-15.154,7.773-20.357,26.061-11.592,40.805l30.308,50.983c-33.172,23.451-62.826,51.526-87.944,83.359l-54.82-31.016
						c-15.542-8.794-35.487-4.234-44.519,10.231l-24.1,38.599c-9.092,14.563-3.694,33.461,12.027,42.16l56.725,31.391
						c-15.729,36.223-26.353,75.052-30.976,115.651l-68.043,0.117c-18.312,0.031-33.207,13.911-33.207,31.002v45.45
						c0,17.09,14.895,30.759,33.207,30.531l69.85-0.869c5.897,39.649,17.544,77.395,34.096,112.439l-61.653,34.991
						c-15.721,8.923-21.119,27.896-12.027,42.33l24.1,38.258c9.032,14.338,28.977,18.614,44.519,9.601l62.358-36.163
						c24.915,29.469,53.893,55.362,86.049,76.912l-35.951,60.985c-8.764,14.867-3.562,33.083,11.592,40.64l40.073,19.985
						c14.983,7.472,34.075,1.524,42.67-13.242l35.655-61.247c35.207,12.418,72.467,20.298,111.035,23.019v68.278
						c0,16.261,13.486,28.637,30.068,27.645l43.82-2.62c16.373-0.979,29.604-14.809,29.604-30.893v-67.536
						c37.433-6.398,73.032-17.598,106.173-32.829l33.08,55.647c7.904,13.295,25.36,17.038,38.967,8.404l35.991-22.84
						c13.461-8.542,18.064-26.148,10.304-39.367l-32.113-54.708c28.745-22.748,54.335-49.064,76.104-78.171l53.56,29.64
						c13.148,7.276,29.905,2.055,37.45-11.621l20.006-36.26c7.5-13.593,3.05-30.548-9.96-37.909l-51.794-29.303
						c14.027-32.906,23.844-67.935,28.797-104.423l57.822-0.719c14.905-0.185,26.952-12.777,26.952-28.125v-40.817
						C3163.092,986.69,3151.045,974.268,3136.14,974.294z M2680.29,1310.297c-166.612,6.182-306.041-123.126-306.041-289.019
						c0-165.892,139.429-296.983,306.041-292.93c160.95,3.915,287.467,133.313,287.467,289.137
						C2967.756,1173.31,2841.24,1304.325,2680.29,1310.297z"/>
					<polygon style="fill:#97A6B7;" points="2493.858,570.976 2453.755,569.593 2439.926,605.547 					"/>
					<polygon style="fill:#97A6B7;" points="2891.519,587.57 2937.763,588.031 2937.763,622.142 					"/>
					<polygon style="fill:#97A6B7;" points="3067.753,752.115 3113.85,753.977 3102.326,779.791 					"/>
					<polygon style="fill:#97A6B7;" points="3140.124,974.777 3186.681,978.464 3171.47,1001.051 					"/>
					<polygon style="fill:#97A6B7;" points="3062.683,1294.222 3107.857,1300.675 3113.389,1263.799 					"/>
					<polygon style="fill:#97A6B7;" points="2889.823,1460.628 2930.387,1468.004 2933.614,1438.041 					"/>
					<polygon style="fill:#97A6B7;" points="2687,1532.538 2650.585,1526.085 2681.93,1479.528 					"/>
					<polygon style="fill:#97A6B7;" points="2489.71,1493.357 2447.301,1484.598 2480.029,1444.956 					"/>
					<polygon style="fill:#97A6B7;" points="2251.393,733.695 2295.646,735.077 2278.129,767.345 					"/>
					<polygon style="fill:#97A6B7;" points="2163.35,1080.797 2203.915,1086.79 2200.688,1053.601 					"/>
					<polygon style="fill:#97A6B7;" points="2250.471,1323.723 2290.114,1330.177 2293.341,1303.902 					"/>
				</g>
				<path style="fill:#D8DEE8;" d="M3181.632,977.95l-56.773,0.098c-3.911-37.497-12.927-73.491-26.343-107.306l48.003-27.834
					c13.118-7.607,17.604-24.764,10.042-38.361l-20.171-36.27c-7.608-13.68-24.503-18.704-37.76-11.181l-47.405,26.901
					c-22.063-30.913-48.395-58.785-78.22-82.759l27.266-46.831c7.823-13.437,3.182-31.12-10.39-39.54l-36.289-22.512
					c-13.719-8.51-31.32-4.488-39.29,9.028l-27.328,46.352c-35.114-16.353-73.058-28.15-113.079-34.478V558.29
					c0-16.216-13.341-29.97-29.85-30.723l-44.183-2.016c-16.72-0.763-30.318,11.907-30.318,28.3v55.571
					c-41.255,3.437-81.025,12.709-118.412,27.057l-29.493-50.239c-8.667-14.763-27.917-20.487-43.024-12.741l-40.405,20.72
					c-15.28,7.836-20.525,26.273-11.688,41.137l30.559,51.398c-33.446,23.643-63.346,51.946-88.672,84.039l-55.274-31.268
					c-15.671-8.865-35.781-4.269-44.888,10.315l-24.299,38.913c-9.168,14.681-3.725,33.733,12.126,42.504l57.195,31.646
					c-15.859,36.518-26.572,75.664-31.232,116.594l-68.606,0.118c-18.464,0.032-33.482,14.025-33.482,31.254v45.82
					c0,17.229,15.018,31.01,33.482,30.78l70.429-0.876c5.946,39.973,17.69,78.026,34.379,113.355l-62.164,35.276
					c-15.851,8.995-21.294,28.124-12.126,42.675l24.299,38.57c9.107,14.455,29.217,18.766,44.888,9.679l62.875-36.458
					c25.122,29.709,54.34,55.813,86.762,77.539l-36.249,61.482c-8.837,14.989-3.591,33.352,11.688,40.971l40.405,20.148
					c15.107,7.533,34.357,1.536,43.024-13.35l35.95-61.746c35.499,12.519,73.067,20.464,111.955,23.207v68.834
					c0,16.393,13.598,28.87,30.318,27.87l44.183-2.641c16.509-0.987,29.85-14.93,29.85-31.145v-68.086
					c37.743-6.45,73.637-17.741,107.052-33.096l33.354,56.1c7.969,13.404,25.571,17.177,39.29,8.472l36.289-23.026
					c13.573-8.612,18.214-26.361,10.39-39.688l-32.379-55.155c28.983-22.933,54.785-49.464,76.735-78.807l54.004,29.881
					c13.257,7.335,30.152,2.072,37.76-11.716l20.171-36.556c7.562-13.704,3.076-30.797-10.042-38.218l-52.223-29.542
					c14.143-33.174,24.041-68.488,29.035-105.273l58.302-0.725c15.029-0.187,27.175-12.881,27.175-28.354v-41.149
					C3208.807,990.447,3196.661,977.924,3181.632,977.95z M2722.003,1316.691c-167.993,6.233-308.578-124.129-308.578-291.373
					c0-167.244,140.585-299.402,308.578-295.316c162.284,3.947,289.849,134.399,289.849,291.492
					C3011.853,1178.588,2884.288,1310.67,2722.003,1316.691z"/>
			</g>
		</g>
		<g>
			
				<linearGradient id="SVGID_1_" gradientUnits="userSpaceOnUse" x1="566.4454" y1="1386.595" x2="3071.7229" y2="1386.595" gradientTransform="matrix(0.9997 0.0339 0 1.0001 0.5028 -87.3618)">
				<stop  offset="0" style="stop-color:#40447E"/>
				<stop  offset="0.9964" style="stop-color:#3C3B6B"/>
			</linearGradient>
			<path style="fill:url(#SVGID_1_);" d="M2802.097,1093.482c-132.479-55.31-277.339-34.625-394.06,42.432
				c-42.646-214.73-178.155-399.832-379.94-484.08c-330.64-138.048-713.994,46.964-856.246,413.232
				c-36.657,94.384-53.677,191.589-53.163,286.262c-17.043-11.265-35.272-21.055-54.625-29.136
				c-180.649-75.423-390.098,25.66-467.818,225.774c-77.721,200.115,3.055,430.787,186.368,498.906
				c97.907,36.382,252.818,42.248,252.818,42.248s1506.833-61.223,1553.312-59.263c185.617,7.833,368.559-112.998,446.226-312.974
				C3132.083,1466.831,3027.823,1187.726,2802.097,1093.482z"/>
			
				<linearGradient id="SVGID_00000051365029636224088000000016577835556688647569_" gradientUnits="userSpaceOnUse" x1="2389.8433" y1="1065.8204" x2="1304.1707" y2="2291.5784" gradientTransform="matrix(0.9997 0.0339 0 1.0001 0.5028 -87.3618)">
				<stop  offset="0" style="stop-color:#AA80F9"/>
				<stop  offset="0.9964" style="stop-color:#6165D7"/>
			</linearGradient>
			<path style="fill:url(#SVGID_00000051365029636224088000000016577835556688647569_);" d="M2846.902,1095.178
				c-132.479-55.31-277.34-34.624-394.06,42.431c-42.647-214.73-178.155-399.833-379.94-484.08
				c-330.64-138.048-713.994,46.963-856.245,413.232c-36.657,94.384-53.678,191.588-53.163,286.261
				c-17.043-11.265-35.272-21.054-54.625-29.136c-180.649-75.423-390.098,25.66-467.819,225.774
				c-77.721,200.115,5.719,423.483,186.368,498.907c38.229,15.961,252.818,42.247,252.818,42.247s1506.834-61.224,1553.312-59.262
				c185.617,7.832,368.56-112.998,446.226-312.975C3176.889,1468.528,3072.628,1189.422,2846.902,1095.178z"/>
		</g>
		<g>
			<path style="fill:#26264F;" d="M3155.506,3030.753l-2403.373-20.486v60.615c0,16.452,10.483,30.441,24.679,32.935
				l679.602,119.362c8.065,1.417,16.244,1.792,24.383,1.12l1648.591-136.092c14.718-1.215,26.118-15.248,26.118-32.151V3030.753z"/>
			<g>
				<path style="fill:#26264F;" d="M2283.331,2933.615L776.986,3044.503c-26.955,1.984-48.871-19.101-48.871-47.098V1875.672
					c0-27.998,21.917-50.696,48.871-50.696h1506.345c22.207,0,40.162,20.518,40.162,45.829V2884.83
					C2323.493,2910.14,2305.538,2931.98,2283.331,2933.615z"/>
				
					<linearGradient id="SVGID_00000113316897823557429050000011682685200894091698_" gradientUnits="userSpaceOnUse" x1="752.1332" y1="2434.8042" x2="2347.5112" y2="2434.8042">
					<stop  offset="0" style="stop-color:#444B8C"/>
					<stop  offset="0.9964" style="stop-color:#26264F"/>
				</linearGradient>
				<path style="fill:url(#SVGID_00000113316897823557429050000011682685200894091698_);" d="M2307.35,2933.615L801.005,3044.503
					c-26.956,1.984-48.872-19.101-48.872-47.098V1875.672c0-27.998,21.916-50.696,48.872-50.696H2307.35
					c22.208,0,40.162,20.518,40.162,45.829V2884.83C2347.511,2910.14,2329.557,2931.98,2307.35,2933.615z"/>
				<path style="fill:#FFFFFF;" d="M2260.423,2862.124L857.42,2958.446c-21.935,1.506-39.761-15.8-39.761-38.657v-982.078
					c0-22.857,17.826-41.464,39.761-41.558l1403.003-6.048c18.319-0.079,33.137,16.734,33.137,37.553v894.497
					C2293.56,2842.972,2278.742,2860.867,2260.423,2862.124z"/>
				<path style="fill:#FFFFFF;" d="M1607.377,1855.657c0,10.423-7.753,18.897-17.327,18.927c-9.586,0.031-17.365-8.413-17.365-18.86
					c0-10.446,7.779-18.92,17.365-18.928C1599.624,1836.791,1607.377,1845.234,1607.377,1855.657z"/>
			</g>
			
				<linearGradient id="SVGID_00000080902272231790617840000000590894291204620961_" gradientUnits="userSpaceOnUse" x1="752.1332" y1="3048.2319" x2="3155.5056" y2="3048.2319">
				<stop  offset="0" style="stop-color:#444B8C"/>
				<stop  offset="0.9964" style="stop-color:#26264F"/>
			</linearGradient>
			<path style="fill:url(#SVGID_00000080902272231790617840000000590894291204620961_);" d="M2367.388,2927.464l-1615.255,116.72
				l704.281,123.696c8.065,1.417,16.244,1.792,24.383,1.121l1674.709-138.249l-762.423-102.496
				C2384.556,2927.111,2375.957,2926.845,2367.388,2927.464z"/>
			<polygon style="fill:#26264F;" points="987.824,3045.188 2332.572,2946.568 2748.76,3002.067 1415.596,3107.488 			"/>
			<g>
				<path style="fill:#D8DEE8;" d="M1423.521,2917.936l-572.347,38.513c-16.792,1.13-31.034-12.186-31.034-29.016V1925.028
					c0-16.016,12.949-29.017,28.965-29.082l574.417-2.32V2917.936z"/>
				<polygon style="fill:#D8DEE8;" points="2162.652,2371.308 1559.617,2392.497 1559.617,2331.524 2162.652,2312.624 				"/>
				<polygon style="fill:#D8DEE8;" points="2162.652,2467.448 1559.617,2492.389 1559.617,2431.415 2162.652,2408.763 				"/>
				<polygon style="fill:#FFFFFF;" points="1364.485,2382.26 1018.216,2394.064 1018.216,2348.492 1364.485,2337.639 				"/>
				<polygon style="fill:#FFFFFF;" points="1364.485,2455.362 1018.216,2468.722 1018.216,2423.15 1364.485,2410.74 				"/>
				<polygon style="fill:#FFFFFF;" points="1364.485,2528.463 1018.216,2543.381 1018.216,2497.809 1364.485,2483.841 				"/>
				<polygon style="fill:#FFFFFF;" points="1364.485,2601.564 1018.216,2618.039 1018.216,2572.467 1364.485,2556.943 				"/>
				<polygon style="fill:#D8DEE8;" points="1826.096,2579.6 1559.617,2592.279 1559.617,2531.305 1826.096,2519.638 				"/>
				<g>
					<path style="fill:#D8DEE8;" d="M1783.186,2101.802v91.592c0,26.482,22.279,47.369,49.677,46.655l67.935-1.772
						c27.069-0.707,48.943-22.52,48.943-48.723v-90.629L1783.186,2101.802z M1845.752,2196.492l12.626-38.257
						c-5.407-2.791-9.073-8.29-9.073-14.695c0-9.403,7.885-17.173,17.599-17.357c9.703-0.184,17.56,7.272,17.56,16.654
						c0,6.392-3.651,12.029-9.043,15.042l12.579,37.628L1845.752,2196.492z"/>
					<path style="fill:#D8DEE8;" d="M1930.431,2090.99c-7.207,0.121-13.053-5.458-13.053-12.46
						c0-26.921-22.602-48.534-50.473-48.176c-27.97,0.359-50.799,22.695-50.799,49.791c0,7.047-5.927,12.86-13.245,12.982
						c-7.325,0.123-13.267-5.501-13.267-12.559c0-41.236,34.776-75.175,77.311-75.652c42.306-0.474,76.559,32.364,76.559,73.199
						C1943.463,2085.104,1937.631,2090.869,1930.431,2090.99z"/>
				</g>
			</g>
			<path style="opacity:0.48;fill:#FFFFFF;" d="M800.999,3044.503l1498.724-110.327l7.627-0.562
				c10.189-0.75,19.454-5.786,26.531-13.427c-107.85-5.902-174.837-44.175-218.049-83.722
				c-86.778-79.419-71.727-157.738-165.307-209.954c-116.72-65.13-208.497,17.397-297.068-64.028
				c-53.696-49.366-27.334-86.178-93.408-159.948c-73.181-81.707-120.827-54.242-194.373-127.779
				c-92.993-92.983-46.484-165.326-126.587-232.084c-97.176-80.989-201.976-6.029-294.48-83.699
				c-39.898-33.499-61.791-82.201-73.222-133.997h-70.38c-26.956,0-48.872,22.697-48.872,50.696v1121.732
				C752.133,3025.401,774.045,3046.483,800.999,3044.503z"/>
		</g>
		<g>
			
				<linearGradient id="SVGID_00000096747465629350626320000000341021414091931796_" gradientUnits="userSpaceOnUse" x1="1953.0056" y1="1042.952" x2="1699.5867" y2="1286.5297">
				<stop  offset="0" style="stop-color:#FF9085"/>
				<stop  offset="1" style="stop-color:#FB6FBB"/>
			</linearGradient>
			<path style="fill:url(#SVGID_00000096747465629350626320000000341021414091931796_);" d="M1447.356,2181.9
				c-22.355,0.647-44.161-4.987-63.048-16.306c-57.544-34.495-142.572-91.461-219.069-166.031
				c-97.068-94.625-152.839-190.811-165.041-285.264l-0.191-1.48l-2.368-403.022c0-79.65,51.951-144.304,149.488-186.788
				c80.585-35.1,187.393-52.492,300.229-49.226c111.523,3.228,214.718,26.239,291.1,64.58
				c90.796,45.578,138.436,109.63,138.436,185.571l-2.16,385.091l-0.175,1.416c-11.151,90.447-62.465,183.938-153.159,278.479
				c-72.746,75.827-154.95,135.92-211.405,173.153C1491.316,2174.393,1469.661,2181.256,1447.356,2181.9z"/>
			
				<linearGradient id="SVGID_00000170265199504356381940000009311955077150730407_" gradientUnits="userSpaceOnUse" x1="1261.87" y1="1844.7212" x2="828.9131" y2="2566.3147">
				<stop  offset="0" style="stop-color:#FF9085"/>
				<stop  offset="1" style="stop-color:#FB6FBB"/>
			</linearGradient>
			<path style="fill:url(#SVGID_00000170265199504356381940000009311955077150730407_);" d="M1469.488,2181.9
				c-22.06,0.647-43.577-4.987-62.215-16.306c-56.784-34.495-140.689-91.461-216.175-166.031
				c-95.785-94.625-150.819-190.811-162.859-285.264l-0.19-1.48l-2.337-403.022c0-79.65,51.265-144.304,147.512-186.788
				c79.521-35.1,184.917-52.492,296.264-49.226c110.049,3.228,211.881,26.239,287.253,64.58
				c89.598,45.578,136.607,109.63,136.607,185.571l-2.132,385.091l-0.173,1.416c-11.003,90.447-61.639,183.938-151.135,278.479
				c-71.785,75.827-152.902,135.92-208.612,173.153C1512.866,2174.393,1491.497,2181.256,1469.488,2181.9z"/>
			
				<linearGradient id="SVGID_00000022562472052625417400000015744488292033330581_" gradientUnits="userSpaceOnUse" x1="1656.5876" y1="1900.6429" x2="956.9794" y2="493.8751">
				<stop  offset="0" style="stop-color:#FF9085"/>
				<stop  offset="1" style="stop-color:#FB6FBB"/>
			</linearGradient>
			<path style="fill:url(#SVGID_00000022562472052625417400000015744488292033330581_);" d="M1052.323,1310.087l2.353,400.986
				c26.395,204.594,266.839,370.239,371.56,433.173c29.999,18.028,68.354,16.959,98.141-2.641
				c102.535-67.47,329.81-237.328,354.093-434.036l2.157-384.03C1880.626,1038.622,1052.323,1012.575,1052.323,1310.087z"/>
			
				<linearGradient id="SVGID_00000116210579328073201610000000537453150912035770_" gradientUnits="userSpaceOnUse" x1="1131.7186" y1="1627.7323" x2="1807.2271" y2="1627.7323">
				<stop  offset="0" style="stop-color:#311944"/>
				<stop  offset="1" style="stop-color:#893976"/>
			</linearGradient>
			<path style="fill:url(#SVGID_00000116210579328073201610000000537453150912035770_);" d="M1475.43,2082.439
				c-1.92,0.044-4.824-0.275-7.76-2.054c-43.118-26.111-126.702-80.803-199.418-152.228
				c-78.543-77.152-123.842-152.163-134.23-222.613l-2.304-394.346c0.095-37.837,30.047-70.22,88.76-96.131
				c65.543-28.927,158.622-44.106,254.953-41.818c95.371,2.264,185.733,21.463,248.336,52.528
				c55.376,27.477,83.371,59.87,83.46,96.398l-2.147,380.693c-9.695,68.174-52.211,141.669-126.86,218.926
				c-70.19,72.641-152.18,130.225-195.035,158.227C1480.252,2081.935,1477.35,2082.393,1475.43,2082.439z"/>
			<path style="fill:#F4F7FA;" d="M1465.591,2055.484c-43.545-26.819-120.977-78.607-188.535-145.093
				c-73.813-72.643-116.528-142.351-126.569-206.852l-2.287-392.056c0.068-27.053,24.935-51.869,73.723-73.47
				c62.089-27.492,151.046-41.979,243.666-39.9c91.732,2.06,178.196,20.178,237.615,49.577
				c46.167,22.842,69.523,47.759,69.587,74.144l-2.143,379.293c-9.421,62.58-49.711,131.021-120.167,203.806
				C1585.068,1972.508,1508.938,2026.847,1465.591,2055.484z"/>
			<g>
				
					<linearGradient id="SVGID_00000026160046421745457070000010828684177039377061_" gradientUnits="userSpaceOnUse" x1="1684.6362" y1="1279.2124" x2="1406.8109" y2="1792.7673">
					<stop  offset="0.0036" style="stop-color:#E38DDD"/>
					<stop  offset="1" style="stop-color:#9571F6"/>
				</linearGradient>
				<path style="fill:url(#SVGID_00000026160046421745457070000010828684177039377061_);" d="M1621.399,1542.176l-293.226,2.609
					c-22.541,0.201-40.906,17.773-40.906,39.237v187.873c0,21.338,18.297,37.877,40.756,36.957l292.191-11.964
					c20.783-0.851,37.638-18.055,37.744-38.443l0.929-179.475C1658.993,1558.469,1642.254,1541.99,1621.399,1542.176z"/>
				
					<linearGradient id="SVGID_00000087403994128699483510000002429000256839829661_" gradientUnits="userSpaceOnUse" x1="1439.0538" y1="1684.78" x2="1514.9087" y2="1684.78">
					<stop  offset="0" style="stop-color:#311944"/>
					<stop  offset="1" style="stop-color:#893976"/>
				</linearGradient>
				<path style="fill:url(#SVGID_00000087403994128699483510000002429000256839829661_);" d="M1514.908,1649.909
					c0.066-20.75-17.744-37.152-39.489-35.777c-19.253,1.216-35.224,16.764-36.304,35.424c-0.838,14.473,6.99,27.012,18.907,33.376
					c5.066,2.706,7.571,8.377,6.572,13.976l-8.475,47.46c-1.078,6.041,3.71,11.356,10.023,11.134l21.451-0.753
					c6.271-0.219,11.042-5.839,10.006-11.777l-8.2-47.009c-0.979-5.613,1.913-11.178,6.998-14.235
					C1507.449,1675.079,1514.866,1663.247,1514.908,1649.909z"/>
				
					<linearGradient id="SVGID_00000080192355637991186600000009835715065823724464_" gradientUnits="userSpaceOnUse" x1="1604.3577" y1="1235.7831" x2="1326.5326" y2="1749.3376">
					<stop  offset="0.0036" style="stop-color:#E38DDD"/>
					<stop  offset="1" style="stop-color:#9571F6"/>
				</linearGradient>
				<path style="fill:url(#SVGID_00000080192355637991186600000009835715065823724464_);" d="M1617.281,1523.541
					c-8.806,0.057-15.928-6.939-15.89-15.628l0.178-40.925c0.179-41.103-33.801-74.917-76.151-75.338l-95.71-0.95
					c-43.83-0.436-79.867,33.742-79.904,76.145l-0.037,42.218c-0.008,8.964-7.639,16.28-17.066,16.341
					c-9.448,0.062-17.119-7.183-17.116-16.186l0.016-42.393c0.024-60.602,51.634-109.266,114.169-108.397l95.752,1.331
					c60.153,0.836,108.204,48.98,107.923,107.246l-0.196,40.762C1633.209,1516.422,1626.067,1523.483,1617.281,1523.541z"/>
			</g>
		</g>
		<g>
			
				<linearGradient id="SVGID_00000175293324302801589870000009306455876285001636_" gradientUnits="userSpaceOnUse" x1="3193.1394" y1="2223.4478" x2="3634.6221" y2="2223.4478" gradientTransform="matrix(-1 0 0 1 6054.2832 0)">
				<stop  offset="0" style="stop-color:#444B8C"/>
				<stop  offset="0.9964" style="stop-color:#3E4177"/>
			</linearGradient>
			<path style="fill:url(#SVGID_00000175293324302801589870000009306455876285001636_);" d="M2484.202,1859.996
				c81.416-39.761,240.216,104.256,317.496,242.203c30.797,54.97,66.953,119.51,58.081,196.236
				c-15.727,136.027-166.622,255.345-374.315,295.179c-5.846-20.883-11.694-41.765-17.541-62.646
				c22.71-23.651,56.669-57.797,100.072-96.92c66.669-60.096,80.368-64.103,83.565-83.075
				c10.473-62.147-149.344-114.173-206.189-223.443C2396.498,2033.581,2421.657,1890.541,2484.202,1859.996z"/>
			
				<linearGradient id="SVGID_00000026154774824060699360000017439125724120346800_" gradientUnits="userSpaceOnUse" x1="3306.9092" y1="2986.448" x2="3471.6919" y2="2986.448" gradientTransform="matrix(-1 0 0 1 6054.2832 0)">
				<stop  offset="0" style="stop-color:#AA80F9"/>
				<stop  offset="0.9964" style="stop-color:#6165D7"/>
			</linearGradient>
			<path style="fill:url(#SVGID_00000026154774824060699360000017439125724120346800_);" d="M2591.165,2953.287
				c0,0-13.367,32.975-6.72,45.888c6.648,12.912,38.722,4.748,83.945,11.66c45.224,6.912,76.428,17.484,78.934,8.115
				c2.505-9.368-91.211-58.827-98.701-65.663C2641.133,2946.45,2591.165,2953.287,2591.165,2953.287z"/>
			
				<linearGradient id="SVGID_00000091004002406568610370000009048971859755687831_" gradientUnits="userSpaceOnUse" x1="3494.396" y1="2697.6907" x2="3436.7615" y2="3058.5315" gradientTransform="matrix(-1 0 0 1 6054.2832 0)">
				<stop  offset="0" style="stop-color:#311944"/>
				<stop  offset="1" style="stop-color:#A03976"/>
			</linearGradient>
			<path style="fill:url(#SVGID_00000091004002406568610370000009048971859755687831_);" d="M2603.142,2903.991l31.624,49.295
				c0,0-14.574,14.383-39.339,9.028l-34.788-46.701L2603.142,2903.991z"/>
			
				<linearGradient id="SVGID_00000073720390580173431260000016213876512133325759_" gradientUnits="userSpaceOnUse" x1="3193.1396" y1="2223.4797" x2="3634.6199" y2="2223.4797" gradientTransform="matrix(-1 0 0 1 6054.2832 0)">
				<stop  offset="0" style="stop-color:#444B8C"/>
				<stop  offset="0.9964" style="stop-color:#3E4177"/>
			</linearGradient>
			<path style="opacity:0.3;fill:url(#SVGID_00000073720390580173431260000016213876512133325759_);" d="M2445.372,2127.53
				c-48.873-93.948-23.714-236.988,38.831-267.534c16.401-8.008,35.973-8.456,57.356-3.101c-11.26,32.514-9.028,56.023-3.471,72.673
				c24.78,74.268,131.914,65.818,165.385,150.35c21.159,53.436-12.488,79.954,17.541,122.786
				c31.12,44.389,82.009,36.946,97.727,80.187c11.713,32.218-11.384,50.539-2.505,77.68c2.474,7.564,7.349,15.158,15.547,22.37
				c-55.042,98.991-183.125,179.374-346.317,210.673c-5.846-20.883-11.694-41.765-17.541-62.646
				c22.71-23.651,56.669-57.797,100.072-96.92c66.669-60.096,80.368-64.103,83.565-83.075
				C2662.033,2288.825,2502.217,2236.8,2445.372,2127.53z"/>
			
				<linearGradient id="SVGID_00000000223163544146964140000012914000902819718589_" gradientUnits="userSpaceOnUse" x1="3437.7803" y1="2413.0718" x2="3815.2695" y2="2413.0718" gradientTransform="matrix(-1 0 0 1 6054.2832 0)">
				<stop  offset="0" style="stop-color:#444B8C"/>
				<stop  offset="0.9964" style="stop-color:#3E4177"/>
			</linearGradient>
			<path style="fill:url(#SVGID_00000000223163544146964140000012914000902819718589_);" d="M2539.758,1889.475
				c-3.522,142.379-1.547,296.327,8.764,460.214c13.166,209.265,37.831,401.475,67.98,574.196
				c-13.393,4.261-26.786,8.522-40.178,12.784c-137.752-134.215-178.972-252.281-190.258-337.207
				c-7.976-60.034,4.096-65.194-6.67-140.33c-20.503-143.086-73.989-192.089-111.548-326.041
				c-14.096-50.277-29.791-126.229-28.789-225.238C2339.292,1901.727,2439.525,1895.601,2539.758,1889.475z"/>
			
				<linearGradient id="SVGID_00000096017319743358793260000002421138566187967657_" gradientUnits="userSpaceOnUse" x1="3681.1636" y1="1143.399" x2="3407.1921" y2="2119.0051" gradientTransform="matrix(-1 0 0 1 6054.2832 0)">
				<stop  offset="0" style="stop-color:#FFC444"/>
				<stop  offset="0.9964" style="stop-color:#F36F56"/>
			</linearGradient>
			<path style="fill:url(#SVGID_00000096017319743358793260000002421138566187967657_);" d="M2638.434,1634.446
				c-2.5,0.573-13.36,4.186-17.654,49.552c-10.354,109.387,46.6,153.674,32.576,212.996
				c-13.461,56.94-82.113,84.566-152.776,113.001c-47.222,19.003-193.277,77.774-278.216,11.687
				c-35.748-27.814-39.66-61.394-65.162-184.828c-64.796-313.615-89.897-340.56-62.646-408.451
				c46.799-116.588,172.101-164.87,192.948-172.902c222.296-85.656,484.806,71.771,588.539,252.631
				c13.659,23.814,95.231,166.04,37.919,233.5c-34.674,40.811-114.353,47.4-166.937,19.57
				C2676.769,1724.019,2661.842,1629.079,2638.434,1634.446z"/>
			
				<linearGradient id="SVGID_00000032650844410069380250000003006377061503257003_" gradientUnits="userSpaceOnUse" x1="3241.6538" y1="1621.0804" x2="3289.2646" y2="1775.6071" gradientTransform="matrix(-1 0 0 1 6054.2832 0)">
				<stop  offset="0" style="stop-color:#FFC444"/>
				<stop  offset="0.9964" style="stop-color:#F36F56"/>
			</linearGradient>
			<path style="fill:url(#SVGID_00000032650844410069380250000003006377061503257003_);" d="M2881.391,1717.405
				c0.695,0,1.4-0.147,2.075-0.454c2.516-1.146,3.626-4.117,2.482-6.637c-1.905-4.171-47.793-102.651-153.83-141.512
				c-2.604-0.964-5.477,0.377-6.426,2.981c-0.954,2.598,0.382,5.476,2.981,6.426c101.994,37.382,147.701,135.281,148.151,136.264
				C2877.666,1716.319,2879.486,1717.405,2881.391,1717.405z"/>
			
				<linearGradient id="SVGID_00000150800012949218838520000002837791716045370298_" gradientUnits="userSpaceOnUse" x1="3837.7441" y1="1187.3695" x2="3563.7725" y2="2162.9771" gradientTransform="matrix(-1 0 0 1 6054.2832 0)">
				<stop  offset="0" style="stop-color:#FFC444"/>
				<stop  offset="0.9964" style="stop-color:#F36F56"/>
			</linearGradient>
			<path style="opacity:0.3;fill:url(#SVGID_00000150800012949218838520000002837791716045370298_);" d="M2239.894,1388.31
				c14.03,38.194-28.068,71.291-10.023,112.762c25.862,59.434,128.639,28.929,165.384,87.704
				c43.55,69.659-56.177,183.914-15.034,223.019c18.749,17.82,40.41-5.003,95.221,7.518
				c78.061,17.831,101.516,79.516,137.821,70.162c11.419-2.942,25.261-13.307,36.906-45.219c5.078,17.706,7.494,34.515,3.187,52.737
				c-13.461,56.94-82.113,84.566-152.777,113.001c-47.223,19.003-193.276,77.774-278.215,11.687
				c-35.748-27.814-39.66-61.394-65.162-184.828c-64.796-313.615-89.897-340.56-62.646-408.451
				c14.86-37.019,37.64-67.128,62.471-91.273C2210.565,1348.956,2232.55,1368.315,2239.894,1388.31z"/>
			
				<linearGradient id="SVGID_00000131340321710039498900000013679420358572743558_" gradientUnits="userSpaceOnUse" x1="4013.542" y1="1236.7382" x2="3739.5713" y2="2212.3418" gradientTransform="matrix(-1 0 0 1 6054.2832 0)">
				<stop  offset="0" style="stop-color:#FFC444"/>
				<stop  offset="0.9964" style="stop-color:#F36F56"/>
			</linearGradient>
			<path style="fill:url(#SVGID_00000131340321710039498900000013679420358572743558_);" d="M2374.272,1627.924
				c-5.998,5.454-66.812,59.021-139.968,40.73c-63.71-15.931-102.826-77.873-109.679-129.994
				c-16.296-123.956,145.199-228.003,125.291-253.089c-11.854-14.939-75.439,13.995-117.774,40.093
				c-43.946,27.089-162.7,100.293-188.009,243.947c-2.152,12.21-30.077,183.476,67.695,254.211
				c90.399,65.401,267.473,29.826,387.398-124.873C2390.909,1675.274,2382.591,1651.6,2374.272,1627.924z"/>
			<path style="fill:#D8DEE8;" d="M2766.371,1514.699l-72.409,231.3c-2.375,7.585-9.276,12.845-17.217,13.126l-389.657,13.764
				c-12.212,0.432-21.561-10.753-18.969-22.693l50.385-232.247c1.822-8.403,9.131-14.486,17.725-14.753l411.681-12.817
				C2760.79,1489.976,2770.221,1502.399,2766.371,1514.699z"/>
			
				<linearGradient id="SVGID_00000044161708457008711080000011891598928283929535_" gradientUnits="userSpaceOnUse" x1="3485.781" y1="1530.9894" x2="3651.1655" y2="1829.1829" gradientTransform="matrix(-1 0 0 1 6054.2832 0)">
				<stop  offset="0.494" style="stop-color:#EBEFF2"/>
				<stop  offset="1" style="stop-color:#FFFFFF"/>
			</linearGradient>
			<path style="fill:url(#SVGID_00000044161708457008711080000011891598928283929535_);" d="M2762.897,1522.303l-70.277,224.487
				c-2.303,7.361-9,12.467-16.708,12.739l-378.181,13.36c-11.85,0.419-20.925-10.437-18.409-22.025l48.9-225.406
				c1.769-8.155,8.863-14.059,17.203-14.319l399.554-12.439C2757.482,1498.31,2766.635,1510.367,2762.897,1522.303z"/>
			
				<linearGradient id="SVGID_00000108282188389749223900000014150684603432332463_" gradientUnits="userSpaceOnUse" x1="3748.6692" y1="1848.1256" x2="3556.5559" y2="1641.8126" gradientTransform="matrix(-1 0 0 1 6054.2832 0)">
				<stop  offset="0.494" style="stop-color:#EBEFF2"/>
				<stop  offset="1" style="stop-color:#FFFFFF"/>
			</linearGradient>
			<path style="fill:url(#SVGID_00000108282188389749223900000014150684603432332463_);" d="M2279.321,1750.864l46.678-215.153
				c7.919,18.729,18.136,28.19,27.91,33.018c28.144,13.902,50.056-11.148,111.51-8.77c23.5,0.909,71.55,2.768,101.486,33.828
				c28.137,29.194,16.174,59.182,33.829,100.234c8.913,20.724,25.45,44.214,57.32,66.139l-360.322,12.728
				C2285.881,1773.307,2276.806,1762.451,2279.321,1750.864z"/>
			
				<linearGradient id="SVGID_00000089534849469475388110000011964182143723341495_" gradientUnits="userSpaceOnUse" x1="3597.2754" y1="1054.6119" x2="3565.5349" y2="1325.2426" gradientTransform="matrix(-1 0 0 1 6054.2832 0)">
				<stop  offset="0" style="stop-color:#311944"/>
				<stop  offset="1" style="stop-color:#A03976"/>
			</linearGradient>
			<path style="fill:url(#SVGID_00000089534849469475388110000011964182143723341495_);" d="M2516.651,1233.214
				c-4.143,14.538,4.604,29.647,19.299,33.193c17.801,4.296,39.485,10.234,48.848,15.592c17.188,9.836-52.355-1.526-116.321-3.027
				c-39.934-0.936-69.775-5.419-86.561-8.655c-4.507-0.87-4.855-7.159-0.493-8.578c15.985-5.2,41.973-12.857,63.935-15.617
				c27.191-3.419,56.349-63.42,56.349-63.42l23.303,21.168L2516.651,1233.214z"/>
			
				<linearGradient id="SVGID_00000168102464409584138970000004608756732399954085_" gradientUnits="userSpaceOnUse" x1="3302.158" y1="1594.832" x2="3378.5361" y2="1594.832" gradientTransform="matrix(-1 0 0 1 6054.2832 0)">
				<stop  offset="0" style="stop-color:#311944"/>
				<stop  offset="1" style="stop-color:#A03976"/>
			</linearGradient>
			<path style="fill:url(#SVGID_00000168102464409584138970000004608756732399954085_);" d="M2748.107,1588.415l-4.422-7.231
				c-3.911-15.018-18.338-24.819-33.742-22.919l-23.234,2.866c-7.271,0.897-12.19,7.813-10.695,14.984
				c2.162,10.37,7.725,22.778,22,21.814c24.25-1.635,39.751,33.705,39.751,33.705l9.307-13.109
				C2753.413,1609.599,2753.818,1597.754,2748.107,1588.415z"/>
			
				<linearGradient id="SVGID_00000147906882414117815080000013994095517901543837_" gradientUnits="userSpaceOnUse" x1="2541.1973" y1="2587.8313" x2="2466.8708" y2="2399.0559" gradientTransform="matrix(-0.8789 -0.477 -0.477 0.8789 5888.2051 210.4266)">
				<stop  offset="0" style="stop-color:#311944"/>
				<stop  offset="1" style="stop-color:#6B3976"/>
			</linearGradient>
			<path style="fill:url(#SVGID_00000147906882414117815080000013994095517901543837_);" d="M2568.585,1202.463
				c20.097-2.977,42.609-19.872,42.171-33.831c-0.601-19.186-44.46-29.693-66.605-34.998c-22.213-5.321-31.635-3.395-37.993,1.445
				c-6.496,4.946-10.764,13.799-12.161,21.434c-0.761,4.16-0.801,9.885-0.089,21.293c0.633,10.124,0.447,9.679,0.709,12.67
				c0.632,7.183,2.592,19.818,9.593,37.33c2.918-3.197,6.779-7.017,11.655-10.783c1.875-1.448,9.299-7.058,17.739-10.456
				C2548.093,1200.733,2556.386,1204.27,2568.585,1202.463z"/>
			
				<linearGradient id="SVGID_00000169549769502225653220000015594829074240120996_" gradientUnits="userSpaceOnUse" x1="3568.5815" y1="1091.1906" x2="3538.5115" y2="1166.366" gradientTransform="matrix(-1 0 0 1 6054.2832 0)">
				<stop  offset="0" style="stop-color:#311944"/>
				<stop  offset="1" style="stop-color:#A03976"/>
			</linearGradient>
			<path style="fill:url(#SVGID_00000169549769502225653220000015594829074240120996_);" d="M2493.52,1208.287
				c0,0,1.302,27.996,27.682,40.287c23.621,11.005,54.969-38.311,46.345-57.143c-2.877-6.281-11.787-13.115-20.916-15.231
				c-5.391-1.25-8.037-0.174-16.808-2.386c-8.088-2.042-9.661-3.924-12.784-3.295c-3.907,0.786-8.889,5.232-12.611,22.63
				c-1.938-6.789-6.236-11.34-10.892-11.619c-0.744-0.044-2.894,0.163-4.658,1.295
				C2482.49,1186.92,2483.738,1197.302,2493.52,1208.287z"/>
		</g>
	</g>
</g>
</svg>
